<?xml version="1.0" encoding="UTF-8"?>
<svg id="Capa_1" data-name="Capa 1" xmlns="http://www.w3.org/2000/svg" viewBox="0 0 139.42 137.01">
  <defs>
    <style>
      .cls-1 {
        fill: #e0decd;
        stroke: #e0decd;
        stroke-miterlimit: 10;
      }
    </style>
  </defs>
  <path class="cls-1" d="M69.71,12.75c18.48,0,20.67.07,27.97.4,6.75.3,10.41,1.41,12.85,2.34,3.23,1.23,5.54,2.71,7.96,5.09,2.42,2.38,3.92,4.65,5.18,7.82.95,2.4,2.08,6,2.38,12.63.33,7.17.4,9.32.4,27.48s-.07,20.31-.4,27.48c-.31,6.63-1.44,10.23-2.38,12.63-1.26,3.17-2.76,5.44-5.18,7.82-2.42,2.38-4.73,3.85-7.96,5.09-2.44.93-6.1,2.04-12.85,2.34-7.3.33-9.49.4-27.97.4s-20.67-.07-27.97-.4c-6.75-.3-10.41-1.41-12.85-2.34-3.23-1.23-5.54-2.71-7.96-5.09-2.42-2.38-3.92-4.65-5.18-7.82-.95-2.4-2.08-6-2.38-12.63-.33-7.17-.4-9.32-.4-27.48s.07-20.31.4-27.48c.31-6.63,1.44-10.23,2.38-12.63,1.26-3.17,2.76-5.44,5.18-7.82,2.42-2.38,4.73-3.85,7.96-5.09,2.44-.93,6.1-2.04,12.85-2.34,7.3-.33,9.49-.4,27.97-.4M69.71.5c-18.8,0-21.15.08-28.54.41-7.37.33-12.4,1.48-16.8,3.16-4.55,1.74-8.41,4.06-12.26,7.84-3.85,3.78-6.21,7.57-7.98,12.05-1.71,4.33-2.88,9.27-3.22,16.51-.34,7.25-.42,9.57-.42,28.04s.08,20.79.42,28.04c.34,7.24,1.51,12.18,3.22,16.51,1.77,4.47,4.14,8.26,7.98,12.05,3.85,3.78,7.71,6.11,12.26,7.84,4.4,1.68,9.43,2.83,16.8,3.16,7.38.33,9.74.41,28.54.41s21.15-.08,28.54-.41c7.37-.33,12.4-1.48,16.8-3.16,4.55-1.74,8.41-4.06,12.26-7.84,3.85-3.78,6.21-7.57,7.98-12.05,1.71-4.33,2.88-9.27,3.22-16.51.34-7.25.42-9.57.42-28.04s-.08-20.79-.42-28.04c-.34-7.24-1.51-12.18-3.22-16.51-1.77-4.47-4.14-8.26-7.98-12.05-3.85-3.78-7.71-6.11-12.26-7.84-4.4-1.68-9.43-2.83-16.8-3.16-7.38-.33-9.74-.41-28.54-.41ZM69.71,33.58c-19.63,0-35.54,15.64-35.54,34.92s15.91,34.92,35.54,34.92,35.54-15.64,35.54-34.92-15.91-34.92-35.54-34.92ZM69.71,91.18c-12.74,0-23.07-10.15-23.07-22.67s10.33-22.67,23.07-22.67,23.07,10.15,23.07,22.67-10.33,22.67-23.07,22.67ZM114.96,32.2c0,4.51-3.72,8.16-8.31,8.16s-8.31-3.65-8.31-8.16,3.72-8.16,8.31-8.16,8.31,3.65,8.31,8.16Z"/>
</svg>