<?xml version="1.0" encoding="UTF-8"?>
<svg id="Capa_1" data-name="Capa 1" xmlns="http://www.w3.org/2000/svg" viewBox="0 0 139.42 137.01">
  <defs>
    <style>
      .cls-1 {
        fill: #e0dece;
        stroke-width: 0px;
      }
    </style>
  </defs>
  <path class="cls-1" d="M136.62,26.61v84.12c0,6.91-2.51,12.87-7.53,17.89-5.02,5.02-10.99,7.53-17.89,7.53H27.39c-6.91,0-12.87-2.51-17.89-7.53-5.02-5.02-7.53-10.99-7.53-17.89V26.61c0-6.91,2.51-12.87,7.53-17.89C14.53,3.7,20.49,1.19,27.39,1.19h83.8c6.91,0,12.87,2.51,17.89,7.53,5.02,5.02,7.53,10.99,7.53,17.89ZM115.28,46.07c.63-12.55-4.08-19.15-14.12-19.46-13.5-.31-22.6,7.22-27.31,22.91,2.51-1.26,5.02-1.57,7.22-1.57,5.02,0,7.22,2.82,6.59,8.47-.31,3.45-2.51,8.16-6.59,14.75-4.08,6.28-7.22,9.73-9.1,9.73-2.51,0-5.02-5.02-7.22-14.75-.63-3.14-2.2-10.67-4.08-22.28-1.88-10.99-6.28-16.32-14.12-15.38-3.45.31-8.16,3.45-14.44,8.79-1.57,1.26-4.08,3.45-7.22,6.28s-5.65,5.02-7.22,6.28l4.71,5.96c4.39-3.14,6.91-4.71,7.53-4.71,3.45,0,6.59,5.34,9.42,15.69.94,3.14,2.2,8.16,4.08,14.44s3.14,11.3,4.08,14.44c4.08,10.36,8.79,15.69,14.44,15.69,9.1,0,20.4-8.47,33.58-25.74,12.87-17.26,19.46-30.13,19.77-39.55Z"/>
</svg>