<?xml version="1.0" encoding="UTF-8"?>
<svg id="adidas" xmlns="http://www.w3.org/2000/svg" version="1.1" viewBox="0 0 409.6 272.6">
  <defs>
    <style>
      .cls-1 {
        fill: #e0decd;
        fill-rule: evenodd;
        stroke-width: 0px;
      }
    </style>
  </defs>
  <path class="cls-1" d="M390.5,189.4c1.6.9,3.4,1.4,5.3,1.4h0c1.9,0,3.7-.5,5.3-1.4,1.7-.9,3.1-2.3,4-4,.9-1.6,1.4-3.4,1.4-5.3,0-1.9-.5-3.8-1.4-5.4-.9-1.7-2.3-3.1-4-3.9-1.6-.9-3.4-1.4-5.2-1.4h-.1c-1.8,0-3.6.5-5.2,1.4-1.7.9-3.1,2.3-4,3.9-1.9,3.3-1.9,7.4,0,10.7.9,1.7,2.3,3.1,4,4h0ZM388.1,175.7c.8-1.4,1.9-2.6,3.3-3.3,1.3-.7,2.8-1.1,4.4-1.2h0c1.5,0,3,.4,4.4,1.2,1.4.8,2.6,1.9,3.3,3.3,1.6,2.8,1.6,6.2,0,8.9-.8,1.4-1.9,2.5-3.3,3.3-1.4.8-2.9,1.2-4.4,1.2h0c-1.6,0-3.1-.4-4.4-1.2-1.4-.8-2.5-1.9-3.3-3.3-1.6-2.8-1.6-6.2,0-8.9h0Z"/>
  <path class="cls-1" d="M393,181.2h1.1c.5,0,1.1,0,1.5.4,0,0,.2.1.2.2.7.7,1.3,1.6,1.7,2.5l1,1.9h2.2l-1.4-2.3c-.5-.8-1.1-1.6-1.7-2.3-.3-.3-.6-.5-1-.6.9,0,1.8-.4,2.4-1,.6-.6.9-1.4.9-2.2,0-1.2-.8-2.4-2-2.8-.7-.2-1.5-.3-2.2-.3-.2,0-.4,0-.7,0h-4v11.6h1.9v-4.9h0ZM393,176.2h2.8c.4,0,.8,0,1.2.2.3,0,.6.3.8.6.4.7.3,1.6-.3,2.2-.5.3-1.1.5-1.7.5h-2.8v-3.4h0ZM116.2,177.4h16.6l-16.6-27.7-14-23.4-59.7,35.8,9.1,15.2h64.7ZM271,177.4h81.3l-50.6-84.3L245.8,0l-23,13.9-36.6,22,36.6,61,48.3,80.6h0ZM242.6,205.2c-5.9-3.8-12.7-5.9-19.7-5.9h-.2c-20.2,0-36.6,16.4-36.6,36.6s16.4,36.6,36.6,36.6h.2c7,0,13.9-2,19.7-5.9v3.8h16.8v-93.2h-16.8v27.8h0ZM242.6,239.8c-1.9,9.4-10.1,16.3-19.7,16.3h-.2c-11.1,0-20.1-9-20.1-20.1,0-11.1,9-20.1,20.1-20.1h.2c9.6,0,17.9,6.8,19.7,16.3v7.6ZM321.6,205.2c-5.9-3.8-12.7-5.9-19.7-5.9h-.2c-20.2,0-36.6,16.4-36.6,36.6s16.4,36.6,36.6,36.6h.2c7,0,13.9-2,19.7-5.9v3.8h16.8v-69.4h-16.8v4h0ZM321.6,239.8c-1.8,9.4-10.1,16.3-19.7,16.3h-.2c-11.1,0-20.1-9-20.1-20.1,0-11.1,9-20.1,20.1-20.1h.2c9.6,0,17.9,6.8,19.7,16.3v7.6ZM398.3,231.4c-.6-.3-1.5-.6-2.5-1-6-1.9-12.2-3.5-18.4-4.7-7.5-1.7-11.2-3.8-11.2-6.5,0-1.7.7-3.4,2-4.6,1.7-1.5,4.8-2.2,9.2-2.2s7.8,1,9.7,2.9c1.2,1.2,2,3.3,2.6,6.2h17.9c0-8.8-3.6-15-10.6-18.9-.4-.2-.8-.4-1.2-.6-4.9-2.3-11.3-3.5-19.4-3.5s-17.2,2.6-22.1,7.8c-3.9,4.1-6,9.7-5.9,15.4,0,7.5,3.7,12.9,11.2,16.5,2.8,1.4,9.7,3.3,20.7,5.6,7.3,1.6,11,3.9,11,6.8,0,1.8-.9,3.5-2.3,4.6-2,1.7-5.1,2.6-9.2,2.6-5.5,0-9.4-.9-11.6-2.7-2.3-1.8-3.6-4.6-3.5-7.5h-18.7c0,8.5,3.6,14.9,10.8,19,5.7,3.3,13.2,4.9,22.6,4.9,5.6,0,11.3-1,16.5-3.1,1-.4,1.9-.9,2.8-1.4,7.3-4.1,11-10.5,11-19.4s-3.8-12.7-11.3-16.3h0ZM56.3,205.2c-5.9-3.8-12.8-5.9-19.8-5.9h-.2C16.1,199.4-.3,215.8-.3,236s16.4,36.6,36.6,36.6h.2c7,0,13.9-2,19.8-5.9v3.8h16.9v-69.4h-16.8v4h0ZM56.3,239.8c-1.9,9.5-10.1,16.3-19.8,16.3h-.2c-11.1,0-20.1-9-20.1-20.1,0-11.1,9-20.1,20.1-20.1h.2c9.6,0,17.9,6.8,19.8,16.3v7.6ZM161.3,193.9h18.3v-16.1h-18.2v16.1ZM161.3,270.6h18.3v-71.2h-18.2v71.2ZM136.1,205.2c-5.9-3.8-12.8-5.9-19.8-5.9h-.2c-20.2,0-36.6,16.4-36.6,36.6s16.4,36.6,36.6,36.6h.2c7,0,13.9-2,19.8-5.9v3.8h16.8v-93.2h-16.8v27.8h0ZM136.1,239.8c-1.9,9.5-10.1,16.3-19.8,16.3h-.2c-11.1,0-20.1-9-20.1-20.1,0-11.1,9-20.1,20.1-20.1h.2c9.6,0,17.9,6.8,19.8,16.3v7.6ZM242.5,177.4l-19.8-33.2-48.8-81.1-57.8,34.8-2,1.2,2,3.3,45.1,75.1h81.2,0Z"/>
</svg>