<svg xmlns="http://www.w3.org/2000/svg" viewBox="0 0 122.29 81.43"><defs><style>.cls-1{fill:#e0decd;}</style></defs><g id="Layer_2" data-name="Layer 2"><g id="Logo_Primario_1_copy" data-name="Logo Primario 1 copy"><path class="cls-1" d="M37.94,81.43v-22C38.36,45,43.76,37,55.62,36.44h66.67V0H55.62A51.75,51.75,0,0,0,33.89,4.65a56.87,56.87,0,0,0-17.6,12.52A60,60,0,0,0,4.39,35.62,53.08,53.08,0,0,0,0,57.05V81.43"/><path class="cls-1" d="M122.29,81.43h-64A11.28,11.28,0,0,1,47,70.18v-14c0-6.18,4.31-11.24,10.5-11.24H111a11.28,11.28,0,0,1,11.25,11.24V81.43Z"/></g></g></svg>